<svg width="1276" height="372" viewBox="0 0 1276 372" preserveAspectRatio="xMinYMin slice" fill="none" xmlns="http://www.w3.org/2000/svg">
<ellipse cx="644.825" cy="633.373" rx="391.438" ry="391.297" fill="white"/>
<ellipse cx="644.825" cy="633.373" rx="391.438" ry="391.297" fill="#D2D7DC" fill-opacity="0.25"/>
<ellipse cx="977.893" cy="925.221" rx="690.107" ry="689.859" fill="white"/>
<ellipse cx="977.893" cy="925.221" rx="690.107" ry="689.859" fill="#D2D7DC" fill-opacity="0.55"/>
<ellipse cx="795.044" cy="1085.24" rx="775.044" ry="774.764" fill="#D2D7DC"/>
<path d="M630 203.108L630.971 201C647.86 208.573 663.118 208.573 676.86 201.042L678 203.066C663.575 210.971 647.537 210.971 630 203.108Z" fill="#D2D7DC"/>
<path d="M582 203.108L582.971 201C599.86 208.573 615.118 208.573 628.86 201.042L630 203.066C615.575 210.971 599.537 210.971 582 203.108Z" fill="#D2D7DC"/>
<path d="M631.444 242H629V197.888C629 194.636 631.736 192 635.111 192H640V194.355H635.111C633.086 194.355 631.444 195.937 631.444 197.888V242Z" fill="#D2D7DC"/>
<path d="M678.444 243H676V198.888C676 195.636 678.736 193 682.111 193H687V195.355H682.111C680.086 195.355 678.444 196.937 678.444 198.888V243Z" fill="#D2D7DC"/>
<path fill-rule="evenodd" clip-rule="evenodd" d="M614.612 42.6424C614.612 42.9169 614.594 43.1878 614.559 43.4483H571.384C571.136 42.7779 571 42.0526 571 41.2911C571 38.2836 573.152 35.7749 576.008 35.212C575.971 34.8791 575.958 34.5369 575.958 34.19C575.958 27.6414 581.287 22.3366 587.855 22.3366C591.905 22.3366 595.475 24.3489 597.623 27.4253C598.386 27.1999 599.196 27.0784 600.032 27.0784C604.71 27.0784 608.502 30.8567 608.502 35.518C608.502 35.8333 608.483 36.1393 608.447 36.4453C611.854 36.4733 614.612 39.2379 614.612 42.6424Z" fill="#E2E6E8"/>
<path fill-rule="evenodd" clip-rule="evenodd" d="M694.73 86.9259C694.73 87.2917 694.705 87.6529 694.657 88H636.33C635.995 87.1065 635.811 86.1398 635.811 85.1249C635.811 81.1165 638.718 77.7728 642.576 77.0225C642.527 76.5789 642.51 76.1228 642.51 75.6605C642.51 66.9323 649.709 59.8621 658.581 59.8621C664.053 59.8621 668.876 62.5442 671.777 66.6444C672.808 66.3439 673.903 66.182 675.032 66.182C681.352 66.182 686.475 71.2178 686.475 77.4304C686.475 77.8507 686.449 78.2585 686.4 78.6663C691.004 78.7037 694.73 82.3883 694.73 86.9259Z" fill="#E2E6E8"/>
<path fill-rule="evenodd" clip-rule="evenodd" d="M864.429 42.6424C864.429 42.9169 864.41 43.1878 864.375 43.4483H821.201C820.952 42.7779 820.816 42.0526 820.816 41.2911C820.816 38.2836 822.969 35.7749 825.824 35.212C825.788 34.8791 825.775 34.5369 825.775 34.19C825.775 27.6414 831.104 22.3366 837.671 22.3366C841.721 22.3366 845.292 24.3489 847.439 27.4253C848.202 27.1999 849.012 27.0784 849.848 27.0784C854.526 27.0784 858.318 30.8567 858.318 35.518C858.318 35.8333 858.3 36.1393 858.263 36.4453C861.671 36.4733 864.429 39.2379 864.429 42.6424Z" fill="#E2E6E8"/>
<path fill-rule="evenodd" clip-rule="evenodd" d="M1007 86.9259C1007 87.2917 1006.97 87.6529 1006.93 88H948.6C948.265 87.1065 948.081 86.1398 948.081 85.1249C948.081 81.1165 950.989 77.7728 954.846 77.0225C954.797 76.5789 954.78 76.1228 954.78 75.6605C954.78 66.9323 961.979 59.8621 970.851 59.8621C976.323 59.8621 981.146 62.5442 984.047 66.6444C985.078 66.3439 986.173 66.182 987.302 66.182C993.622 66.182 998.745 71.2178 998.745 77.4304C998.745 77.8507 998.719 78.2585 998.67 78.6663C1003.27 78.7037 1007 82.3883 1007 86.9259Z" fill="#E2E6E8"/>
<path fill-rule="evenodd" clip-rule="evenodd" d="M962.947 220.241C959.052 220.241 955.895 217.268 955.895 213.599V194.056C955.895 190.388 959.052 187.414 962.947 187.414C966.842 187.414 970 190.388 970 194.056V213.599C970 217.268 966.842 220.241 962.947 220.241Z" fill="#D2D7DC"/>
<path d="M962.947 219.069V234.31" stroke="#D2D7DC" stroke-width="2"/>
<path fill-rule="evenodd" clip-rule="evenodd" d="M939.439 219.069C934.895 219.069 931.21 215.246 931.21 210.529V185.403C931.21 180.686 934.895 176.862 939.439 176.862C943.983 176.862 947.667 180.686 947.667 185.403V210.529C947.667 215.246 943.983 219.069 939.439 219.069Z" fill="#B4BBC3"/>
<path d="M939.439 217.897V235.483" stroke="#B4BBC3" stroke-width="2"/>
<path fill-rule="evenodd" clip-rule="evenodd" d="M912.424 217.455C907.219 217.455 903 213.248 903 208.056V180.4C903 175.209 907.219 171 912.424 171C917.629 171 921.849 175.209 921.849 180.4V208.056C921.849 213.248 917.629 217.455 912.424 217.455Z" fill="#697887" fill-opacity="0.7"/>
<path opacity="0.704597" d="M912.424 216.724V237.937" stroke="#697887" stroke-width="2"/>
<rect width="30.4828" height="68.6333" transform="matrix(-1 0 0 1 794.826 242.366)" fill="#F4F5F6"/>
<path fill-rule="evenodd" clip-rule="evenodd" d="M762.115 310.916V246.211C762.115 242.78 764.882 239.999 768.282 239.999H789.843C793.243 239.999 795.998 242.78 795.998 246.211V296.87C795.998 300.018 794.721 302.869 792.67 304.94C790.605 307.011 787.768 308.289 784.649 308.289C778.388 308.289 773.3 303.153 773.3 296.834V287.522H773.278C771.226 286.977 769.701 285.096 769.701 282.859V276.836H772.081V281.652H776.853V276.836H779.244V282.859C779.244 285.096 777.708 286.977 775.657 287.522H775.645V296.834C775.645 301.852 779.69 305.922 784.649 305.922C789.62 305.922 793.653 301.852 793.653 296.834V246.211C793.653 244.093 791.953 242.366 789.843 242.366H768.282C766.172 242.366 764.46 244.093 764.46 246.211V310.916H762.115ZM785.96 253.67V262.887C785.96 264.084 784.996 265.058 783.81 265.058H774.676C773.49 265.058 772.525 264.084 772.525 262.887V253.67C772.525 252.472 773.49 251.498 774.676 251.498H783.81C784.996 251.498 785.96 252.472 785.96 253.67ZM770.18 253.67V262.887C770.18 265.388 772.198 267.425 774.676 267.425H783.81C786.288 267.425 788.305 265.388 788.305 262.887V253.67C788.305 251.168 786.288 249.132 783.81 249.132H774.676C772.198 249.132 770.18 251.168 770.18 253.67Z" fill="#19324B"/>
<rect x="0.5" y="0.5" width="1687" height="3739" rx="4.5" stroke="#9747FF" stroke-dasharray="10 5"/>
</svg>
