<svg xmlns="http://www.w3.org/2000/svg" fill="none" viewBox="0 0 80 30"><path fill="#212121" fill-rule="evenodd" d="M0 29.63h80V0H0v29.63Zm3.12-3.23h73.76V3.23H3.12V26.4Zm63.594-3.84h6.517V7.07h-1.966a15.753 15.753 0 0 0-10.977 4.534c-2.968 2.919-4.602 6.809-4.602 10.956h3.902c0-5.607 4.219-10.31 9.74-11.261v7.222h-2.614v4.04Zm-8.33-11.451h-5.407V22.56h-3.902V11.11h-4.917V7.07h14.226v4.039Zm-22.392 7.109c0-3.907 3.06-7.079 6.725-7.11V7.07c-2.54.021-4.906.964-6.725 2.567V7.07H32.09v15.49h3.902v-4.342ZM25.82 22.56h3.902V7.07H25.82v15.49Zm-6.047-4.533c2.968-2.92 4.603-6.81 4.603-10.957h-3.903c0 5.607-4.218 10.309-9.74 11.261V11.11h2.614V7.07H6.83v15.49h1.966a15.758 15.758 0 0 0 10.977-4.533Z" clip-rule="evenodd"/></svg>